<svg width="30" height="31" viewBox="0 0 30 31" fill="none" xmlns="http://www.w3.org/2000/svg">
<g clip-path="url(#clip0_9_2076)">
<path fill-rule="evenodd" clip-rule="evenodd" d="M6.45384 15.2478C6.45384 14.2952 6.61206 13.3818 6.89446 12.5252L1.95145 8.75049C0.988082 10.7065 0.445312 12.9105 0.445312 15.2478C0.445312 17.5832 0.987415 19.7858 1.94945 21.7405L6.88979 17.9585C6.61006 17.1058 6.45384 16.1958 6.45384 15.2478Z" fill="#FBBC05"/>
<path fill-rule="evenodd" clip-rule="evenodd" d="M15.1325 6.58154C17.2021 6.58154 19.0715 7.31488 20.5402 8.51488L24.8129 4.24821C22.2092 1.98154 18.8712 0.581543 15.1325 0.581543C9.3283 0.581543 4.33989 3.90088 1.95117 8.75088L6.89418 12.5255C8.03313 9.06821 11.2797 6.58154 15.1325 6.58154Z" fill="#EB4335"/>
<path fill-rule="evenodd" clip-rule="evenodd" d="M15.1325 23.9152C11.2797 23.9152 8.03313 21.4285 6.89418 17.9712L1.95117 21.7452C4.33989 26.5959 9.3283 29.9152 15.1325 29.9152C18.7149 29.9152 22.1351 28.6432 24.7021 26.2599L20.0101 22.6325C18.6862 23.4665 17.0192 23.9152 15.1325 23.9152Z" fill="#34A853"/>
<path fill-rule="evenodd" clip-rule="evenodd" d="M29.1527 15.2482C29.1527 14.3815 29.0192 13.4482 28.8189 12.5815H15.1328V18.2482H23.0107C22.6168 20.1802 21.5446 21.6655 20.0104 22.6322L24.7024 26.2595C27.3989 23.7569 29.1527 20.0289 29.1527 15.2482Z" fill="#4285F4"/>
</g>
<defs>
<clipPath id="clip0_9_2076">
<rect width="30" height="30" fill="white" transform="translate(0 0.248535)"/>
</clipPath>
</defs>
</svg>
